<svg width="12" height="9" fill="none" xmlns="http://www.w3.org/2000/svg"><path d="M12 1.07c-.44.18-.92.3-1.41.35.51-.28.9-.73 1.08-1.25-.48.26-1.01.45-1.56.55A2.64 2.64 0 0 0 7.15.27c-.48.24-.86.61-1.09 1.07-.22.45-.27.96-.15 1.45A7.46 7.46 0 0 1 3.1 2.1 6.92 6.92 0 0 1 .84.42a2.14 2.14 0 0 0-.05 2.21c.2.33.47.61.8.82-.38-.01-.77-.1-1.1-.28v.03c0 .52.19 1.03.55 1.43.36.41.86.69 1.42.8-.37.08-.75.1-1.11.03.15.45.46.85.87 1.13.41.28.91.44 1.43.45A5.21 5.21 0 0 1 0 7.98 7.4 7.4 0 0 0 3.77 9c4.53 0 7-3.46 7-6.46v-.3c.48-.32.9-.72 1.23-1.17Z" fill="#fff"/></svg>