<svg width="301" height="113" xmlns="http://www.w3.org/2000/svg"><path d="M279.64 56.14a34 34 0 0 0-1.2-.9l-2.61-4.27a4.08 4.08 0 0 0-2.57-1.8 4.04 4.04 0 0 0-3.07.67s-12.17 8.63-12.79 9.1c-4.62-6.38-12.87-9.92-21.34-8.67a24.97 24.97 0 0 0-13.76 7.03c-.63-2.49-1.33-5.32-1.33-5.36 2.22-2.26 8.95-8.94 8.95-8.94 0-.04 1.32-3.2 1.32-3.2l-.35-1.66a4.49 4.49 0 0 0-4.12-2.76s-6.84 0-10.85.04c-1.28-3.7-4.7-13.38-4.7-13.38a4.49 4.49 0 0 0-8.4-.12c0-.03-3.07 7.74-4.98 12.45a20.99 20.99 0 0 0-1.51-3.11c-3.15-5.3-8.01-8.44-13.34-8.6-2.95-.03-9.68-.11-14.46 5.02-.04 0-.04.04-.04.04a16.7 16.7 0 0 0-12.79-5.06c-5.17.12-9.33 1.83-12.36 5.02a16.47 16.47 0 0 0-3.65 6.45 2638.3 2638.3 0 0 0-4.94-12.24 4.45 4.45 0 0 0-8.28.04c0 .03-3.3 8.94-4.98 13.45h-10.8c-1.68 0-3.2.93-3.93 2.45-.04.19-.55 1.98-.55 1.98l1.05 2.88s6.65 7.8 9.57 11.27c-.08.31-.2.7-.35 1.13a16.04 16.04 0 0 0-5.8-4.67 18.04 18.04 0 0 0-9.6-1.4V33.24c.04-.31.08-1.2.08-1.2 0-5.25-2.33-9.73-6.41-12.25a14.87 14.87 0 0 0-12.21-1.25c-3-5.67-8.05-10.3-14.85-13.4C50.19-2.93 25.35.81 12.4 13.44 3.78 21.9-.4 32.31 1.25 41.4c1.05 5.99 4.63 10.77 9.8 13.06 6.57 2.96 11.7 1.83 14.96.24v25.7c-4.47 5.48-6.91 11.03-6.91 16.2 0 1.83.27 3.54.81 5.14 1.71 5.17 6.14 8.86 11.86 9.91 6.02 1.01 12.63-.86 17.6-5.05a20.68 20.68 0 0 0 7.67-16.06v-24.1c5.36-2.1 10.88-4.74 15.63-8.4V97.2c0 .27-.08 1.2-.08 1.2 0 4.36 2.06 8.25 5.6 10.7a15.43 15.43 0 0 0 15.93.54c1.68-.94 3-2.22 4.09-3.66a16.27 16.27 0 0 0 8.43 5.17c5.52 1.44 12.25.55 17.34-2.06a20.23 20.23 0 0 0 10.92 3.15c4.44-.04 8.25-1.6 11.08-3.26 8.52 5.09 18 3.03 25.16-1.25 9.52 6.19 20.17 4.75 28.07.66 8.94 5.8 19.04 4.13 25.38.55.31-.16.54-.39.85-.55 10.23 4.83 19.83 5.56 28.5 2.03a32.28 32.28 0 0 0 7.85-4.75c10.11 7.78 18.4 7.23 23.76 5.21 8.63-3.22 14.1-12.2 15.04-19.4.24-1.51.31-2.99.31-4.47 0-15.43-11.78-24.02-21.26-30.86Z" fill="#fff"/><path d="M206.9 32.34c-.12 0-.23.08-.3.2 0 0-3.63 10.26-3.74 10.65h-8.32a.3.3 0 0 0-.27.2c-.04.03-.04.03-.04.07 0 .08.04.2.12.24 0 0 7 6.1 7.27 6.37-.12.35-3.15 10.23-3.15 10.23 0 .03-.04.07-.04.07 0 .12.07.2.15.28.08.03.24.03.31-.04 0 0 7.62-5.91 8.01-6.18.31.27 7.93 6.18 7.93 6.18.12.07.27.07.4.04.07-.08.07-.16.07-.28v-.07s-3.07-9.88-3.15-10.23c.23-.27 7.23-6.37 7.23-6.37.04-.04.12-.16.12-.24 0-.04 0-.04-.04-.08a.3.3 0 0 0-.27-.19h-8.32c-.16-.39-3.7-10.65-3.7-10.65a.3.3 0 0 0-.27-.2ZM130.75 32.34a.3.3 0 0 0-.28.2s-3.61 10.26-3.77 10.65h-8.32a.3.3 0 0 0-.27.2v.07c0 .08.04.2.08.24 0 0 7 6.1 7.23 6.37-.08.35-3.11 10.23-3.11 10.23v.07c0 .12.04.2.12.28.11.03.27.03.35-.04l7.97-6.18 7.97 6.18c.07.07.23.07.34.04a.35.35 0 0 0 .12-.28v-.07s-3.07-9.88-3.23-10.23c.28-.27 7.31-6.37 7.31-6.37a.42.42 0 0 0 .08-.24c0-.04 0-.04-.04-.08 0-.11-.15-.19-.23-.19h-8.36c-.12-.39-3.7-10.65-3.7-10.65a.3.3 0 0 0-.26-.2Z" fill="#074F91"/><path d="M230.38 81.87c-.35-.23-.54-.5-.66-1-.35-1.88.94-5.84 3.58-9.07v-.04c1.24-2.17 3.77-4 6.41-4.7 1.48-.35 2.8-.23 3.62.27.23.2.43.7.5 1.44.28 2.22-.66 5.95-2.87 8.48-2.38 2.8-6.38 5.13-8.95 5.17-.77 0-1.32-.2-1.63-.55Zm-49.68-17.3-.39.08V39.38l.2-.08c.5-.23.97-.2 1.43.08 1.8 1.13 2.6 6.1 2.76 8.98l-.03.78c-.51 7-1.44 15.04-3.97 15.43Zm-25.7 0-.38.08V39.38l.19-.08c.5-.23 1.01-.2 1.48.12 1.94 1.2 2.64 6.8 2.76 8.98-.67 10.54-1.99 15.86-4.05 16.17Zm120.36-2.64L273 60.18c0-.04-1.32-2.14-1.32-2.14l-.16-.31-8.74 6.26v.2c1 16.2-7.58 23.09-12.75 25.77-4.98 2.56-9.76 2.72-10.97 1.75a.55.55 0 0 1-.23-.47v-.08c9.83-6.37 15.24-13.8 15.24-20.6 0-1.52-.27-2.96-.78-4.4-2.3-6.1-9.1-9.8-16.21-8.78-3.85.54-16.56 4.2-18.23 27.64.42 4.32-1.29 6.26-2.84 6.65-1.63.39-3.34-.66-4.12-2.6l.04-18.43c-.5-5.68-3.66-7.47-6.42-7.23a6.8 6.8 0 0 0-6.1 7.27v14.69a8.38 8.38 0 0 1-5.33 6.84 7.4 7.4 0 0 1-7.58-1.4c-1.7-1.55-4.16-5.4-1.9-13.88C195 56.72 194.27 42 190.1 34.91c-1.83-3.15-4.47-4.94-7.35-5.05-3.3-.04-6.65.27-8.98 2.76-2.02 2.13-2.88 5.67-2.49 10.5v40.11c-1.05 5.48-3.3 7.35-5.01 7.97-2.02.7-4.4.04-6.53-1.79 0-.04-.31-.58-.31-.58-.7-1.32-1.4-2.6-1.4-5.52 0-1.48.23-3.46.73-6.1 5.6-12.52 8.48-23.68 8.48-32.04 0-4.58-.86-8.36-2.68-11.04-1.95-2.87-4.9-4.35-8.67-4.27-3.27.07-5.68.97-7.31 2.76-2.18 2.29-3.11 6.02-2.92 11.39v42.53c0 2.21-.85 3.92-2.37 4.78-1.48.81-3.38.7-4.78-.2-1.44-.89-2.1-2.4-1.98-4.27V70.99c.11-3.35-1.1-5.95-3.35-7.23a5.74 5.74 0 0 0-5.94.07c-2.18 1.4-3.35 4.05-3.11 7.27v17.03c-.08 2.8-2.45 3.85-4.44 3.89-2.4.08-4.97-1.25-5.17-3.93V69.74c-.85-6.72-3.18-11.04-6.95-12.79-5.52-2.6-12.1.9-13.69 1.83V33.24c.04-.43.08-.86.08-1.2 0-2.77-1.05-4.9-3.03-6.11a7.53 7.53 0 0 0-7.86.23 6.92 6.92 0 0 0-3.26 6.03c0 .31.04.62.08.97v64.18c-.08.35-.08.7-.08 1.05 0 1.99.85 3.62 2.45 4.7 2.25 1.56 5.75 1.68 8.32.28a6.04 6.04 0 0 0 3.1-5.83V74.6c-.23-1.36 1.37-3 3.39-3.38.9-.2 3.89-.5 4.78 3.5v21.3c.08 4.16 2.41 7.04 6.65 8.17 5.56 1.47 13.02-.59 15.47-4.16 3.34 3.38 7 5.05 10.85 5.01 5.9-.08 10.26-4.08 11.23-5.05 10.5 10.92 23.64.23 25.23-1.17 12.13 12.33 26.7 2.14 28.42.86 6.8 7.19 15.47 6.3 21.34 2.95 1.48-.82 2.92-1.94 3.35-2.84 9.9 5.8 18.93 7.16 26.78 3.97 14.5-5.99 20.41-25.78 21.19-28.7 6.06 1.64 8.78 6.97 9.21 11.17 0 .42.04.85.04 1.28 0 2.72-.93 4.86-2.57 5.64-2.02.97-4.86-.28-8.04-3.5l-.12-.16-.2.08c-2.56.97-6.56 7.9-6.72 8.16l-.16.27.2.16c8.6 7.62 15.08 7.42 19.01 5.99 6.3-2.37 9.87-9.37 10.42-13.6.15-1.25.27-2.42.27-3.55 0-11.74-8.94-18.23-18.35-25.07ZM52.72 46.73l-1.94.35V22.63l1.55-.08c7.62-.55 11.94 2.84 12.8 10.03.73 7.03-4.13 12.6-12.4 14.15Zm12.01-35.07c-14.85-6.84-36.5-3.65-47.3 6.92-6.93 6.77-10.35 14.85-9.14 21.54.66 3.7 2.68 6.45 5.71 7.81 3.5 1.6 6.65 1.67 9.22.28 5.36-2.88 6.72-10.85 6.76-11.16l.08-.4h-.43c-1.36.05-3.07-.26-3.38-1.82-.04-.2-.08-.35-.08-.58 0-2.68 3.38-7 7.93-9.06v57.7c-4.74 5-7.35 10.18-7.35 14.34 0 .97.12 1.86.4 2.68.8 2.49 2.9 4.16 5.86 4.67 4 .7 8.6-.7 12.05-3.58 3.27-2.76 5.1-6.5 5.1-10.46v-29c17.26-6.3 27.48-12.95 28.41-28.1 0-.55.04-1.1.04-1.64 0-8.86-4.9-15.98-13.88-20.14Z" fill="#DC2732"/></svg>